<svg xmlns="http://www.w3.org/2000/svg" version="1.0" width="834.000000pt" height="834.000000pt" viewBox="0 0 834.000000 834.000000" preserveAspectRatio="xMidYMid meet">

<g transform="translate(0.000000,834.000000) scale(0.100000,-0.100000)" fill="#009f49" stroke="none">
<path d="M3960 6114 c-236 -237 -336 -329 -531 -486 l-107 -86 -88 45 c-146 74 -183 86 -208 70 -11 -8 -109 -97 -216 -198 -199 -188 -335 -300 -495 -406 -145 -96 -381 -226 -545 -300 -106 -48 -100 -51 51 -24 57 11 122 22 144 25 283 43 489 83 528 103 83 42 404 319 457 393 19 27 42 73 98 203 l21 48 113 -57 c62 -31 114 -57 116 -59 1 -1 -93 -99 -210 -217 -273 -275 -372 -384 -332 -366 172 76 339 174 489 287 44 32 83 57 86 55 7 -4 -20 -138 -45 -217 -8 -26 -11 -47 -7 -45 14 5 180 198 265 308 84 107 180 247 230 333 28 49 55 66 181 114 34 13 55 28 68 51 24 40 160 356 177 409 7 21 16 41 19 46 4 4 27 -16 52 -45 158 -189 572 -632 769 -824 156 -151 464 -413 475 -402 2 2 -17 39 -42 83 -69 121 -272 464 -306 518 -16 26 -27 50 -25 52 5 6 104 -27 138 -45 12 -6 24 -10 26 -7 2 2 -5 32 -17 66 -11 35 -19 73 -17 84 3 21 4 21 31 -8 16 -16 70 -92 122 -170 52 -77 109 -154 127 -171 88 -83 514 -338 708 -424 181 -81 490 -190 490 -175 0 3 -27 18 -60 35 -99 50 -379 208 -479 271 -336 212 -529 382 -815 717 -76 89 -141 162 -144 162 -2 0 -54 -42 -116 -93 -127 -106 -209 -167 -224 -167 -13 0 -183 183 -460 498 -128 145 -230 252 -240 252 -10 0 -123 -106 -252 -236z" fill="#009f49"/>
<path d="M4203 5560 c-5 -14 -20 -52 -32 -85 -28 -77 -80 -148 -137 -188 l-46 -32 69 -3 c91 -3 97 -6 76 -34 -43 -56 -140 -141 -186 -164 -63 -32 -50 -44 51 -44 49 0 72 -4 72 -12 0 -7 -27 -39 -61 -71 -42 -42 -85 -71 -145 -99 -47 -22 -83 -42 -81 -44 3 -3 62 -5 132 -5 l126 1 -22 -31 c-40 -56 -186 -137 -281 -156 -42 -8 -34 -19 30 -44 49 -19 79 -23 217 -25 l160 -2 3 -86 c1 -47 -1 -86 -6 -86 -5 0 -35 9 -68 21 -32 11 -124 36 -204 54 -427 101 -989 59 -1980 -146 -58 -12 -111 -25 -118 -29 -22 -11 503 -20 1205 -20 673 0 668 0 983 40 94 12 168 16 174 9 3 -3 -13 -14 -37 -25 l-42 -19 225 -6 c320 -10 2376 -23 2369 -15 -3 3 -113 28 -245 56 -647 138 -1126 198 -1494 187 -157 -5 -204 -10 -310 -36 -69 -16 -163 -43 -209 -60 -47 -17 -88 -31 -93 -31 -4 0 -8 44 -8 98 l0 97 121 -3 c122 -3 219 7 273 28 29 11 29 11 -53 40 -90 31 -141 61 -207 122 -50 46 -58 74 -19 64 30 -8 235 4 235 13 0 3 -36 21 -81 40 -60 26 -99 51 -150 99 -38 35 -69 68 -69 73 0 4 42 10 93 11 l92 3 -45 23 c-57 30 -123 93 -161 155 -34 55 -34 55 66 59 l70 3 -40 22 c-82 44 -124 106 -195 288 -7 19 -8 19 -17 -5z" fill="#009f49"/>
<path d="M200 3841 c0 -5 13 -12 29 -16 16 -3 39 -17 52 -31 l24 -26 -3 -381 c-1 -240 -6 -392 -13 -409 -7 -17 -27 -33 -57 -46 l-47 -20 180 -1 180 -1 -40 23 c-27 15 -44 34 -52 57 -13 39 -18 386 -5 393 4 3 115 2 247 -2 l240 -6 3 -168 c1 -98 -2 -185 -8 -208 -14 -49 -42 -79 -76 -79 -14 0 -23 -4 -19 -10 7 -12 345 -14 345 -2 0 4 -16 14 -35 21 -67 24 -66 16 -63 443 3 429 -1 406 76 440 23 10 42 21 42 23 0 3 -86 5 -191 5 -177 0 -226 -8 -150 -25 16 -3 39 -17 52 -31 23 -24 24 -33 27 -185 l3 -159 -248 2 -248 3 4 160 c2 88 7 168 13 178 5 10 28 26 51 36 l41 18 -129 6 c-176 9 -225 9 -225 -2z" fill="#009f49"/>
<path d="M5803 3686 c-10 -13 -26 -41 -36 -62 -9 -22 -36 -86 -61 -144 -233 -547 -246 -572 -307 -585 -69 -15 -33 -25 90 -25 72 0 131 2 131 5 0 3 -16 11 -35 19 -20 9 -35 22 -35 32 0 9 21 70 48 135 l47 119 144 -2 144 -3 43 -109 c24 -59 44 -116 44 -126 0 -18 -23 -41 -55 -56 -23 -10 94 -17 228 -12 l82 3 -38 19 c-21 10 -45 29 -53 41 -14 22 -96 220 -236 573 -72 182 -82 202 -103 202 -13 0 -32 -11 -42 -24z m49 -297 c25 -63 47 -122 47 -131 1 -16 -11 -18 -114 -18 l-115 0 15 38 c73 174 100 232 109 229 6 -2 32 -55 58 -118z" fill="#009f49"/>
<path d="M1410 3694 c0 -5 18 -16 39 -25 75 -32 75 -33 72 -373 -2 -205 -6 -309 -14 -326 -7 -14 -30 -34 -52 -45 l-40 -20 87 -3 c49 -1 127 -1 175 0 l88 3 -37 17 c-70 31 -69 29 -66 381 3 298 4 316 23 337 11 12 33 28 50 35 27 12 19 13 -86 14 -64 1 -144 4 -178 7 -34 4 -61 3 -61 -2z" fill="#009f49"/>
<path d="M3822 3681 c-96 -33 -151 -110 -152 -209 0 -108 43 -156 210 -236 145 -69 195 -104 210 -150 15 -46 -2 -108 -36 -135 -41 -32 -124 -46 -188 -32 -81 18 -126 56 -161 134 -17 37 -34 65 -40 63 -6 -1 -10 -46 -10 -107 l0 -104 90 -18 c122 -25 261 -20 330 12 96 43 137 105 136 207 -1 114 -35 150 -239 254 -158 81 -192 112 -192 174 1 73 55 116 145 116 108 -1 162 -41 207 -155 22 -55 30 -31 26 80 l-3 89 -85 18 c-109 22 -182 22 -248 -1z" fill="#009f49"/>
<path d="M2015 3680 c3 -5 13 -10 21 -10 9 0 29 -13 45 -29 l29 -29 0 -304 c0 -341 -3 -358 -70 -389 l-35 -17 125 -7 c69 -3 204 -5 300 -3 l175 3 17 90 c9 50 16 94 15 99 -2 4 -21 -16 -42 -45 -57 -77 -105 -99 -217 -99 -136 0 -128 -23 -128 344 0 178 4 316 10 331 6 17 26 33 55 46 25 11 45 22 45 24 0 3 -79 5 -176 5 -114 0 -173 -3 -169 -10z" fill="#009f49"/>
<path d="M2815 3680 c-3 -4 8 -11 24 -15 16 -3 39 -17 52 -31 l24 -26 -3 -316 c-4 -350 -4 -351 -68 -378 -19 -8 -34 -16 -34 -19 0 -3 134 -5 299 -5 l299 0 17 89 c9 49 15 95 13 101 -2 6 -21 -15 -43 -46 -55 -78 -90 -95 -206 -97 -89 -1 -92 0 -116 28 l-25 29 4 301 c4 342 5 345 79 365 23 6 39 13 36 16 -9 9 -346 13 -352 4z" fill="#009f49"/>
<path d="M4730 3675 c-119 -34 -212 -111 -268 -223 -36 -74 -37 -79 -37 -187 0 -107 1 -114 34 -179 60 -118 173 -194 321 -217 89 -14 217 -7 299 17 55 15 60 19 75 58 15 42 35 121 36 144 0 21 -15 13 -27 -16 -48 -107 -139 -166 -257 -167 -126 0 -224 63 -289 188 -31 60 -32 66 -32 182 0 101 4 129 23 176 61 154 208 231 354 187 58 -17 122 -79 149 -143 12 -30 26 -55 29 -55 8 0 24 190 16 197 -2 3 -38 14 -78 25 -98 27 -273 33 -348 13z" fill="#009f49"/>
<path d="M6460 3652 c0 -4 16 -14 35 -21 66 -23 67 -35 60 -374 -4 -166 -11 -314 -17 -329 -6 -16 -24 -32 -46 -42 -44 -18 -53 -16 156 -22 85 -2 142 1 142 6 0 6 -7 10 -15 10 -8 0 -29 13 -47 29 l-33 29 0 101 0 101 120 3 c97 3 130 8 170 26 103 45 154 122 155 229 0 119 -65 204 -185 241 -59 18 -93 21 -281 21 -118 0 -214 -4 -214 -8z m435 -65 c115 -63 129 -280 22 -361 -40 -31 -122 -47 -182 -37 l-40 6 -2 189 c-1 104 2 197 8 207 18 35 127 32 194 -4z" fill="#009f49"/>
<path d="M7354 3649 c-11 -3 -4 -10 24 -23 22 -10 45 -29 51 -42 7 -17 11 -124 11 -320 0 -340 -2 -350 -72 -382 l-43 -20 327 -1 326 -1 10 48 c18 85 24 142 16 142 -5 0 -19 -18 -32 -40 -48 -85 -119 -114 -266 -109 -136 5 -137 7 -134 188 l3 136 80 3 c112 5 148 -8 181 -63 14 -25 28 -45 30 -45 2 0 4 55 3 123 0 99 -2 118 -12 103 -7 -11 -22 -30 -34 -43 -22 -22 -28 -24 -135 -21 l-113 3 1 149 c2 181 -2 176 129 176 122 0 169 -22 205 -98 14 -28 28 -52 33 -52 4 0 7 43 7 95 l0 94 -290 3 c-160 2 -298 1 -306 -3z" fill="#009f49"/>
</g>
</svg>